<mxfile host="Electron" modified="2023-07-12T19:30:29.684Z" agent="Mozilla/5.0 (Windows NT 10.0; Win64; x64) AppleWebKit/537.36 (KHTML, like Gecko) draw.io/21.6.1 Chrome/112.0.5615.204 Electron/24.6.1 Safari/537.36" etag="K34WmG7HsTu36kxTYLOd" version="21.6.1" type="device">
  <diagram name="Страница 1" id="c3548VUoACl7wSkiNIpS">
    <mxGraphModel dx="772" dy="645" grid="1" gridSize="10" guides="1" tooltips="1" connect="1" arrows="1" fold="1" page="1" pageScale="1" pageWidth="827" pageHeight="1169" math="0" shadow="0">
      <root>
        <mxCell id="0" />
        <mxCell id="1" parent="0" />
        <mxCell id="WZUrz4PlLw2k-hg1UFa6-3" style="edgeStyle=orthogonalEdgeStyle;rounded=0;orthogonalLoop=1;jettySize=auto;html=1;exitX=0.5;exitY=1;exitDx=0;exitDy=0;entryX=0.5;entryY=0;entryDx=0;entryDy=0;" edge="1" parent="1" source="WZUrz4PlLw2k-hg1UFa6-1" target="WZUrz4PlLw2k-hg1UFa6-2">
          <mxGeometry relative="1" as="geometry" />
        </mxCell>
        <mxCell id="WZUrz4PlLw2k-hg1UFa6-1" value="Запуск программы, метод Main()" style="rounded=1;whiteSpace=wrap;html=1;" vertex="1" parent="1">
          <mxGeometry x="330" y="40" width="120" height="60" as="geometry" />
        </mxCell>
        <mxCell id="WZUrz4PlLw2k-hg1UFa6-6" style="edgeStyle=orthogonalEdgeStyle;rounded=0;orthogonalLoop=1;jettySize=auto;html=1;exitX=0.5;exitY=1;exitDx=0;exitDy=0;entryX=0.5;entryY=0;entryDx=0;entryDy=0;" edge="1" parent="1" source="WZUrz4PlLw2k-hg1UFa6-2" target="WZUrz4PlLw2k-hg1UFa6-4">
          <mxGeometry relative="1" as="geometry" />
        </mxCell>
        <mxCell id="WZUrz4PlLw2k-hg1UFa6-8" value="" style="edgeStyle=orthogonalEdgeStyle;rounded=0;orthogonalLoop=1;jettySize=auto;html=1;" edge="1" parent="1" source="WZUrz4PlLw2k-hg1UFa6-2" target="WZUrz4PlLw2k-hg1UFa6-5">
          <mxGeometry relative="1" as="geometry" />
        </mxCell>
        <mxCell id="WZUrz4PlLw2k-hg1UFa6-2" value="var a = EnterNumber(&quot;A&quot;)&lt;br&gt;Ввод числа с клавиатуры в переменную a" style="rounded=0;whiteSpace=wrap;html=1;" vertex="1" parent="1">
          <mxGeometry x="170" y="130" width="440" height="50" as="geometry" />
        </mxCell>
        <mxCell id="WZUrz4PlLw2k-hg1UFa6-7" style="edgeStyle=orthogonalEdgeStyle;rounded=0;orthogonalLoop=1;jettySize=auto;html=1;exitX=0.5;exitY=1;exitDx=0;exitDy=0;entryX=0.5;entryY=0;entryDx=0;entryDy=0;" edge="1" parent="1" source="WZUrz4PlLw2k-hg1UFa6-4" target="WZUrz4PlLw2k-hg1UFa6-5">
          <mxGeometry relative="1" as="geometry" />
        </mxCell>
        <mxCell id="WZUrz4PlLw2k-hg1UFa6-4" value="var b = EnterNumber(&quot;B&quot;)&lt;br&gt;Ввод числа с клавиатуры в переменную b" style="rounded=0;whiteSpace=wrap;html=1;" vertex="1" parent="1">
          <mxGeometry x="170" y="205" width="440" height="60" as="geometry" />
        </mxCell>
        <mxCell id="WZUrz4PlLw2k-hg1UFa6-10" style="edgeStyle=orthogonalEdgeStyle;rounded=0;orthogonalLoop=1;jettySize=auto;html=1;exitX=0.5;exitY=1;exitDx=0;exitDy=0;entryX=0.5;entryY=0;entryDx=0;entryDy=0;" edge="1" parent="1" source="WZUrz4PlLw2k-hg1UFa6-5" target="WZUrz4PlLw2k-hg1UFa6-9">
          <mxGeometry relative="1" as="geometry" />
        </mxCell>
        <mxCell id="WZUrz4PlLw2k-hg1UFa6-5" value="var c = EnterNumber(&quot;C&quot;)&lt;br&gt;Ввод числа с клавиатуры в переменную c" style="rounded=0;whiteSpace=wrap;html=1;" vertex="1" parent="1">
          <mxGeometry x="171" y="286" width="440" height="60" as="geometry" />
        </mxCell>
        <mxCell id="WZUrz4PlLw2k-hg1UFa6-12" style="edgeStyle=orthogonalEdgeStyle;rounded=0;orthogonalLoop=1;jettySize=auto;html=1;exitX=0.5;exitY=1;exitDx=0;exitDy=0;entryX=0.5;entryY=0;entryDx=0;entryDy=0;" edge="1" parent="1" source="WZUrz4PlLw2k-hg1UFa6-9" target="WZUrz4PlLw2k-hg1UFa6-11">
          <mxGeometry relative="1" as="geometry" />
        </mxCell>
        <mxCell id="WZUrz4PlLw2k-hg1UFa6-9" value="var p = a + b + c&lt;br&gt;В переменную p положить сумму a + b + c" style="rounded=0;whiteSpace=wrap;html=1;" vertex="1" parent="1">
          <mxGeometry x="170" y="360" width="440" height="60" as="geometry" />
        </mxCell>
        <mxCell id="WZUrz4PlLw2k-hg1UFa6-14" style="edgeStyle=orthogonalEdgeStyle;rounded=0;orthogonalLoop=1;jettySize=auto;html=1;exitX=0.5;exitY=1;exitDx=0;exitDy=0;entryX=0.5;entryY=0;entryDx=0;entryDy=0;" edge="1" parent="1" source="WZUrz4PlLw2k-hg1UFa6-11" target="WZUrz4PlLw2k-hg1UFa6-13">
          <mxGeometry relative="1" as="geometry" />
        </mxCell>
        <mxCell id="WZUrz4PlLw2k-hg1UFa6-11" value="Console.WriteLine($&quot;Периметр = {p}&quot;);&lt;br&gt;Вывели значение переменной p на экран" style="rounded=0;whiteSpace=wrap;html=1;" vertex="1" parent="1">
          <mxGeometry x="170" y="440" width="440" height="60" as="geometry" />
        </mxCell>
        <mxCell id="WZUrz4PlLw2k-hg1UFa6-16" style="edgeStyle=orthogonalEdgeStyle;rounded=0;orthogonalLoop=1;jettySize=auto;html=1;exitX=1;exitY=0.5;exitDx=0;exitDy=0;entryX=0;entryY=0.5;entryDx=0;entryDy=0;" edge="1" parent="1" source="WZUrz4PlLw2k-hg1UFa6-13" target="WZUrz4PlLw2k-hg1UFa6-15">
          <mxGeometry relative="1" as="geometry" />
        </mxCell>
        <mxCell id="WZUrz4PlLw2k-hg1UFa6-20" style="edgeStyle=orthogonalEdgeStyle;rounded=0;orthogonalLoop=1;jettySize=auto;html=1;exitX=0.5;exitY=1;exitDx=0;exitDy=0;entryX=0.5;entryY=0;entryDx=0;entryDy=0;" edge="1" parent="1" source="WZUrz4PlLw2k-hg1UFa6-13" target="WZUrz4PlLw2k-hg1UFa6-18">
          <mxGeometry relative="1" as="geometry" />
        </mxCell>
        <mxCell id="WZUrz4PlLw2k-hg1UFa6-13" value="a &amp;lt; b" style="rhombus;whiteSpace=wrap;html=1;" vertex="1" parent="1">
          <mxGeometry x="350" y="520" width="80" height="80" as="geometry" />
        </mxCell>
        <mxCell id="WZUrz4PlLw2k-hg1UFa6-15" value="Console.WriteLine(&quot;A меньше B&quot;);" style="rounded=0;whiteSpace=wrap;html=1;" vertex="1" parent="1">
          <mxGeometry x="460" y="530" width="290" height="60" as="geometry" />
        </mxCell>
        <mxCell id="WZUrz4PlLw2k-hg1UFa6-17" value="Да" style="text;html=1;strokeColor=none;fillColor=none;align=center;verticalAlign=middle;whiteSpace=wrap;rounded=0;" vertex="1" parent="1">
          <mxGeometry x="410" y="530" width="60" height="30" as="geometry" />
        </mxCell>
        <mxCell id="WZUrz4PlLw2k-hg1UFa6-22" style="edgeStyle=orthogonalEdgeStyle;rounded=0;orthogonalLoop=1;jettySize=auto;html=1;exitX=1;exitY=0.5;exitDx=0;exitDy=0;entryX=0;entryY=0.5;entryDx=0;entryDy=0;" edge="1" parent="1" source="WZUrz4PlLw2k-hg1UFa6-18" target="WZUrz4PlLw2k-hg1UFa6-21">
          <mxGeometry relative="1" as="geometry" />
        </mxCell>
        <mxCell id="WZUrz4PlLw2k-hg1UFa6-25" style="edgeStyle=orthogonalEdgeStyle;rounded=0;orthogonalLoop=1;jettySize=auto;html=1;exitX=0.5;exitY=1;exitDx=0;exitDy=0;entryX=0.5;entryY=0;entryDx=0;entryDy=0;" edge="1" parent="1" source="WZUrz4PlLw2k-hg1UFa6-18" target="WZUrz4PlLw2k-hg1UFa6-24">
          <mxGeometry relative="1" as="geometry" />
        </mxCell>
        <mxCell id="WZUrz4PlLw2k-hg1UFa6-18" value="a == b" style="rhombus;whiteSpace=wrap;html=1;" vertex="1" parent="1">
          <mxGeometry x="350" y="620" width="80" height="80" as="geometry" />
        </mxCell>
        <mxCell id="WZUrz4PlLw2k-hg1UFa6-21" value="Console.WriteLine(&quot;A равно B&quot;);" style="rounded=0;whiteSpace=wrap;html=1;" vertex="1" parent="1">
          <mxGeometry x="460" y="630" width="290" height="60" as="geometry" />
        </mxCell>
        <mxCell id="WZUrz4PlLw2k-hg1UFa6-23" value="Да" style="text;html=1;strokeColor=none;fillColor=none;align=center;verticalAlign=middle;whiteSpace=wrap;rounded=0;" vertex="1" parent="1">
          <mxGeometry x="410" y="620" width="60" height="30" as="geometry" />
        </mxCell>
        <mxCell id="WZUrz4PlLw2k-hg1UFa6-24" value="Console.WriteLine(&quot;A больше B&quot;);" style="rounded=0;whiteSpace=wrap;html=1;" vertex="1" parent="1">
          <mxGeometry x="245" y="720" width="290" height="60" as="geometry" />
        </mxCell>
        <mxCell id="WZUrz4PlLw2k-hg1UFa6-26" value="" style="endArrow=none;html=1;rounded=0;entryX=1;entryY=0.5;entryDx=0;entryDy=0;" edge="1" parent="1" target="WZUrz4PlLw2k-hg1UFa6-15">
          <mxGeometry width="50" height="50" relative="1" as="geometry">
            <mxPoint x="780" y="560" as="sourcePoint" />
            <mxPoint x="600" y="560" as="targetPoint" />
          </mxGeometry>
        </mxCell>
        <mxCell id="WZUrz4PlLw2k-hg1UFa6-27" value="" style="endArrow=none;html=1;rounded=0;entryX=1;entryY=0.5;entryDx=0;entryDy=0;" edge="1" parent="1" target="WZUrz4PlLw2k-hg1UFa6-21">
          <mxGeometry width="50" height="50" relative="1" as="geometry">
            <mxPoint x="780" y="660" as="sourcePoint" />
            <mxPoint x="760" y="570" as="targetPoint" />
            <Array as="points">
              <mxPoint x="780" y="660" />
            </Array>
          </mxGeometry>
        </mxCell>
        <mxCell id="WZUrz4PlLw2k-hg1UFa6-28" value="" style="endArrow=none;html=1;rounded=0;" edge="1" parent="1">
          <mxGeometry width="50" height="50" relative="1" as="geometry">
            <mxPoint x="780" y="660" as="sourcePoint" />
            <mxPoint x="780" y="560" as="targetPoint" />
          </mxGeometry>
        </mxCell>
        <mxCell id="WZUrz4PlLw2k-hg1UFa6-29" value="" style="endArrow=none;html=1;rounded=0;" edge="1" parent="1">
          <mxGeometry width="50" height="50" relative="1" as="geometry">
            <mxPoint x="780" y="800" as="sourcePoint" />
            <mxPoint x="780" y="660" as="targetPoint" />
          </mxGeometry>
        </mxCell>
        <mxCell id="WZUrz4PlLw2k-hg1UFa6-30" value="" style="endArrow=none;html=1;rounded=0;" edge="1" parent="1">
          <mxGeometry width="50" height="50" relative="1" as="geometry">
            <mxPoint x="390" y="800" as="sourcePoint" />
            <mxPoint x="780" y="800" as="targetPoint" />
          </mxGeometry>
        </mxCell>
        <mxCell id="WZUrz4PlLw2k-hg1UFa6-31" value="" style="endArrow=classic;html=1;rounded=0;exitX=0.5;exitY=1;exitDx=0;exitDy=0;" edge="1" parent="1" source="WZUrz4PlLw2k-hg1UFa6-24">
          <mxGeometry width="50" height="50" relative="1" as="geometry">
            <mxPoint x="550" y="610" as="sourcePoint" />
            <mxPoint x="390" y="820" as="targetPoint" />
          </mxGeometry>
        </mxCell>
        <mxCell id="WZUrz4PlLw2k-hg1UFa6-34" style="edgeStyle=orthogonalEdgeStyle;rounded=0;orthogonalLoop=1;jettySize=auto;html=1;exitX=0.5;exitY=1;exitDx=0;exitDy=0;entryX=0.5;entryY=0;entryDx=0;entryDy=0;" edge="1" parent="1" source="WZUrz4PlLw2k-hg1UFa6-32" target="WZUrz4PlLw2k-hg1UFa6-33">
          <mxGeometry relative="1" as="geometry" />
        </mxCell>
        <mxCell id="WZUrz4PlLw2k-hg1UFa6-32" value="&lt;div&gt;Console.WriteLine($&quot;{a} + {b} = {a + b}&quot;);&lt;/div&gt;&lt;div&gt;&lt;span style=&quot;background-color: initial;&quot;&gt;Console.WriteLine($&quot;{a} - {b} = {a - b}&quot;);&lt;/span&gt;&lt;/div&gt;&lt;div&gt;&lt;span style=&quot;background-color: initial;&quot;&gt;Console.WriteLine($&quot;{a} * {b} = {a * b}&quot;);&lt;/span&gt;&lt;/div&gt;&lt;div&gt;&lt;span style=&quot;background-color: initial;&quot;&gt;Console.WriteLine($&quot;{a} / {b} = {a / b}&quot;);&lt;/span&gt;&lt;/div&gt;&lt;div&gt;&lt;span style=&quot;background-color: initial;&quot;&gt;Выводим результаты четырёх операций&lt;/span&gt;&lt;/div&gt;" style="rounded=0;whiteSpace=wrap;html=1;" vertex="1" parent="1">
          <mxGeometry x="245" y="820" width="290" height="100" as="geometry" />
        </mxCell>
        <mxCell id="WZUrz4PlLw2k-hg1UFa6-36" style="edgeStyle=orthogonalEdgeStyle;rounded=0;orthogonalLoop=1;jettySize=auto;html=1;exitX=0.5;exitY=1;exitDx=0;exitDy=0;entryX=0.5;entryY=0;entryDx=0;entryDy=0;" edge="1" parent="1" source="WZUrz4PlLw2k-hg1UFa6-33" target="WZUrz4PlLw2k-hg1UFa6-35">
          <mxGeometry relative="1" as="geometry" />
        </mxCell>
        <mxCell id="WZUrz4PlLw2k-hg1UFa6-33" value="double e = a + b&lt;br&gt;В переменную e положить сумму a + b" style="rounded=0;whiteSpace=wrap;html=1;" vertex="1" parent="1">
          <mxGeometry x="171" y="950" width="440" height="60" as="geometry" />
        </mxCell>
        <mxCell id="WZUrz4PlLw2k-hg1UFa6-39" value="" style="edgeStyle=orthogonalEdgeStyle;rounded=0;orthogonalLoop=1;jettySize=auto;html=1;" edge="1" parent="1" source="WZUrz4PlLw2k-hg1UFa6-35" target="WZUrz4PlLw2k-hg1UFa6-37">
          <mxGeometry relative="1" as="geometry" />
        </mxCell>
        <mxCell id="WZUrz4PlLw2k-hg1UFa6-42" style="edgeStyle=orthogonalEdgeStyle;rounded=0;orthogonalLoop=1;jettySize=auto;html=1;exitX=0.5;exitY=1;exitDx=0;exitDy=0;" edge="1" parent="1" source="WZUrz4PlLw2k-hg1UFa6-35" target="WZUrz4PlLw2k-hg1UFa6-41">
          <mxGeometry relative="1" as="geometry" />
        </mxCell>
        <mxCell id="WZUrz4PlLw2k-hg1UFa6-35" value="e &amp;gt; 0" style="rhombus;whiteSpace=wrap;html=1;" vertex="1" parent="1">
          <mxGeometry x="351" y="1050" width="80" height="80" as="geometry" />
        </mxCell>
        <mxCell id="WZUrz4PlLw2k-hg1UFa6-37" value="Console.WriteLine(&quot;Сумма A и B положительна.&quot;)" style="rounded=0;whiteSpace=wrap;html=1;" vertex="1" parent="1">
          <mxGeometry x="470" y="1060" width="290" height="60" as="geometry" />
        </mxCell>
        <mxCell id="WZUrz4PlLw2k-hg1UFa6-40" value="Да" style="text;html=1;strokeColor=none;fillColor=none;align=center;verticalAlign=middle;whiteSpace=wrap;rounded=0;" vertex="1" parent="1">
          <mxGeometry x="414" y="1050" width="60" height="30" as="geometry" />
        </mxCell>
        <mxCell id="WZUrz4PlLw2k-hg1UFa6-44" style="edgeStyle=orthogonalEdgeStyle;rounded=0;orthogonalLoop=1;jettySize=auto;html=1;exitX=1;exitY=0.5;exitDx=0;exitDy=0;entryX=0;entryY=0.5;entryDx=0;entryDy=0;" edge="1" parent="1" source="WZUrz4PlLw2k-hg1UFa6-41" target="WZUrz4PlLw2k-hg1UFa6-43">
          <mxGeometry relative="1" as="geometry" />
        </mxCell>
        <mxCell id="WZUrz4PlLw2k-hg1UFa6-47" style="edgeStyle=orthogonalEdgeStyle;rounded=0;orthogonalLoop=1;jettySize=auto;html=1;exitX=0.5;exitY=1;exitDx=0;exitDy=0;entryX=0.5;entryY=0;entryDx=0;entryDy=0;" edge="1" parent="1" source="WZUrz4PlLw2k-hg1UFa6-41" target="WZUrz4PlLw2k-hg1UFa6-46">
          <mxGeometry relative="1" as="geometry" />
        </mxCell>
        <mxCell id="WZUrz4PlLw2k-hg1UFa6-41" value="e == 0" style="rhombus;whiteSpace=wrap;html=1;" vertex="1" parent="1">
          <mxGeometry x="351" y="1180" width="80" height="80" as="geometry" />
        </mxCell>
        <mxCell id="WZUrz4PlLw2k-hg1UFa6-43" value="Console.WriteLine(&quot;Сумма A и B равна 0&quot;);" style="rounded=0;whiteSpace=wrap;html=1;" vertex="1" parent="1">
          <mxGeometry x="470" y="1190" width="290" height="60" as="geometry" />
        </mxCell>
        <mxCell id="WZUrz4PlLw2k-hg1UFa6-45" value="Да" style="text;html=1;strokeColor=none;fillColor=none;align=center;verticalAlign=middle;whiteSpace=wrap;rounded=0;" vertex="1" parent="1">
          <mxGeometry x="414" y="1180" width="60" height="30" as="geometry" />
        </mxCell>
        <mxCell id="WZUrz4PlLw2k-hg1UFa6-53" style="edgeStyle=orthogonalEdgeStyle;rounded=0;orthogonalLoop=1;jettySize=auto;html=1;exitX=0.5;exitY=1;exitDx=0;exitDy=0;entryX=0.5;entryY=0;entryDx=0;entryDy=0;" edge="1" parent="1" source="WZUrz4PlLw2k-hg1UFa6-46" target="WZUrz4PlLw2k-hg1UFa6-52">
          <mxGeometry relative="1" as="geometry" />
        </mxCell>
        <mxCell id="WZUrz4PlLw2k-hg1UFa6-46" value="WaitForExit();&lt;br&gt;Ожидание нажатия на Y для выхода" style="rounded=0;whiteSpace=wrap;html=1;" vertex="1" parent="1">
          <mxGeometry x="271.5" y="1320" width="239" height="60" as="geometry" />
        </mxCell>
        <mxCell id="WZUrz4PlLw2k-hg1UFa6-48" value="" style="endArrow=none;html=1;rounded=0;exitX=1;exitY=0.5;exitDx=0;exitDy=0;" edge="1" parent="1" source="WZUrz4PlLw2k-hg1UFa6-37">
          <mxGeometry width="50" height="50" relative="1" as="geometry">
            <mxPoint x="450" y="1300" as="sourcePoint" />
            <mxPoint x="800" y="1090" as="targetPoint" />
          </mxGeometry>
        </mxCell>
        <mxCell id="WZUrz4PlLw2k-hg1UFa6-49" value="" style="endArrow=none;html=1;rounded=0;entryX=1;entryY=0.5;entryDx=0;entryDy=0;" edge="1" parent="1" target="WZUrz4PlLw2k-hg1UFa6-43">
          <mxGeometry width="50" height="50" relative="1" as="geometry">
            <mxPoint x="800" y="1220" as="sourcePoint" />
            <mxPoint x="500" y="1250" as="targetPoint" />
          </mxGeometry>
        </mxCell>
        <mxCell id="WZUrz4PlLw2k-hg1UFa6-50" value="" style="endArrow=none;html=1;rounded=0;" edge="1" parent="1">
          <mxGeometry width="50" height="50" relative="1" as="geometry">
            <mxPoint x="800" y="1290" as="sourcePoint" />
            <mxPoint x="800" y="1090" as="targetPoint" />
          </mxGeometry>
        </mxCell>
        <mxCell id="WZUrz4PlLw2k-hg1UFa6-51" value="" style="endArrow=none;html=1;rounded=0;" edge="1" parent="1">
          <mxGeometry width="50" height="50" relative="1" as="geometry">
            <mxPoint x="390" y="1290" as="sourcePoint" />
            <mxPoint x="800" y="1290" as="targetPoint" />
          </mxGeometry>
        </mxCell>
        <mxCell id="WZUrz4PlLw2k-hg1UFa6-52" value="Конец" style="rounded=1;whiteSpace=wrap;html=1;" vertex="1" parent="1">
          <mxGeometry x="331" y="1400" width="120" height="60" as="geometry" />
        </mxCell>
        <mxCell id="WZUrz4PlLw2k-hg1UFa6-58" style="edgeStyle=orthogonalEdgeStyle;rounded=0;orthogonalLoop=1;jettySize=auto;html=1;exitX=0.5;exitY=1;exitDx=0;exitDy=0;entryX=0.5;entryY=0;entryDx=0;entryDy=0;" edge="1" parent="1" source="WZUrz4PlLw2k-hg1UFa6-54" target="WZUrz4PlLw2k-hg1UFa6-55">
          <mxGeometry relative="1" as="geometry" />
        </mxCell>
        <mxCell id="WZUrz4PlLw2k-hg1UFa6-54" value="WaitForExit - вход в метод" style="rounded=1;whiteSpace=wrap;html=1;" vertex="1" parent="1">
          <mxGeometry x="245" y="1490" width="265" height="60" as="geometry" />
        </mxCell>
        <mxCell id="WZUrz4PlLw2k-hg1UFa6-60" style="edgeStyle=orthogonalEdgeStyle;rounded=0;orthogonalLoop=1;jettySize=auto;html=1;exitX=0.5;exitY=1;exitDx=0;exitDy=0;entryX=0.5;entryY=0;entryDx=0;entryDy=0;" edge="1" parent="1" source="WZUrz4PlLw2k-hg1UFa6-55" target="WZUrz4PlLw2k-hg1UFa6-59">
          <mxGeometry relative="1" as="geometry" />
        </mxCell>
        <mxCell id="WZUrz4PlLw2k-hg1UFa6-55" value="Печатаем:&lt;br&gt;Console.WriteLine(&quot;Нажмите y для завершения&quot;);" style="rounded=0;whiteSpace=wrap;html=1;" vertex="1" parent="1">
          <mxGeometry x="215.5" y="1570" width="324" height="60" as="geometry" />
        </mxCell>
        <mxCell id="WZUrz4PlLw2k-hg1UFa6-68" style="edgeStyle=orthogonalEdgeStyle;rounded=0;orthogonalLoop=1;jettySize=auto;html=1;exitX=0.5;exitY=1;exitDx=0;exitDy=0;entryX=0.5;entryY=0;entryDx=0;entryDy=0;" edge="1" parent="1" source="WZUrz4PlLw2k-hg1UFa6-59" target="WZUrz4PlLw2k-hg1UFa6-64">
          <mxGeometry relative="1" as="geometry" />
        </mxCell>
        <mxCell id="WZUrz4PlLw2k-hg1UFa6-59" value="ConsoleKeyInfo enteredKey;&lt;br&gt;Объявили переменную с именем enteredKey (как a, b или c) и типом &quot;информация о нажатой кнопке&quot;" style="rounded=0;whiteSpace=wrap;html=1;" vertex="1" parent="1">
          <mxGeometry x="215.5" y="1650" width="324" height="60" as="geometry" />
        </mxCell>
        <mxCell id="WZUrz4PlLw2k-hg1UFa6-69" style="edgeStyle=orthogonalEdgeStyle;rounded=0;orthogonalLoop=1;jettySize=auto;html=1;exitX=0.5;exitY=1;exitDx=0;exitDy=0;entryX=0.5;entryY=0;entryDx=0;entryDy=0;" edge="1" parent="1" source="WZUrz4PlLw2k-hg1UFa6-64" target="WZUrz4PlLw2k-hg1UFa6-65">
          <mxGeometry relative="1" as="geometry" />
        </mxCell>
        <mxCell id="WZUrz4PlLw2k-hg1UFa6-64" value="ConsoleKeyInfo enteredKey;&lt;br&gt;Объявили переменную с именем enteredKey (как a, b или c) и типом &quot;информация о нажатой кнопке&quot;" style="rounded=0;whiteSpace=wrap;html=1;" vertex="1" parent="1">
          <mxGeometry x="215.5" y="1730" width="324" height="60" as="geometry" />
        </mxCell>
        <mxCell id="WZUrz4PlLw2k-hg1UFa6-71" style="edgeStyle=orthogonalEdgeStyle;rounded=0;orthogonalLoop=1;jettySize=auto;html=1;exitX=0.5;exitY=1;exitDx=0;exitDy=0;entryX=0.5;entryY=0;entryDx=0;entryDy=0;" edge="1" parent="1" source="WZUrz4PlLw2k-hg1UFa6-65" target="WZUrz4PlLw2k-hg1UFa6-70">
          <mxGeometry relative="1" as="geometry" />
        </mxCell>
        <mxCell id="WZUrz4PlLw2k-hg1UFa6-65" value="do&lt;br&gt;Начало цикла" style="rounded=0;whiteSpace=wrap;html=1;" vertex="1" parent="1">
          <mxGeometry x="317.5" y="1810" width="120" height="60" as="geometry" />
        </mxCell>
        <mxCell id="WZUrz4PlLw2k-hg1UFa6-73" style="edgeStyle=orthogonalEdgeStyle;rounded=0;orthogonalLoop=1;jettySize=auto;html=1;exitX=0.5;exitY=1;exitDx=0;exitDy=0;entryX=0.5;entryY=0;entryDx=0;entryDy=0;" edge="1" parent="1" source="WZUrz4PlLw2k-hg1UFa6-70" target="WZUrz4PlLw2k-hg1UFa6-72">
          <mxGeometry relative="1" as="geometry" />
        </mxCell>
        <mxCell id="WZUrz4PlLw2k-hg1UFa6-70" value="enteredKey = Console.ReadKey();&lt;br&gt;Читаем с клавиатуры нажатую кнопку в переменную enteredKey" style="rounded=0;whiteSpace=wrap;html=1;" vertex="1" parent="1">
          <mxGeometry x="215.5" y="1890" width="324" height="60" as="geometry" />
        </mxCell>
        <mxCell id="WZUrz4PlLw2k-hg1UFa6-74" style="edgeStyle=orthogonalEdgeStyle;rounded=0;orthogonalLoop=1;jettySize=auto;html=1;exitX=1;exitY=0.5;exitDx=0;exitDy=0;" edge="1" parent="1" source="WZUrz4PlLw2k-hg1UFa6-72">
          <mxGeometry relative="1" as="geometry">
            <mxPoint x="580" y="1840" as="targetPoint" />
          </mxGeometry>
        </mxCell>
        <mxCell id="WZUrz4PlLw2k-hg1UFa6-80" style="edgeStyle=orthogonalEdgeStyle;rounded=0;orthogonalLoop=1;jettySize=auto;html=1;exitX=0.5;exitY=1;exitDx=0;exitDy=0;entryX=0.5;entryY=0;entryDx=0;entryDy=0;" edge="1" parent="1" source="WZUrz4PlLw2k-hg1UFa6-72" target="WZUrz4PlLw2k-hg1UFa6-79">
          <mxGeometry relative="1" as="geometry" />
        </mxCell>
        <mxCell id="WZUrz4PlLw2k-hg1UFa6-72" value="enteredKey.KeyChar != &#39;y&#39;&lt;br&gt;Введённый символ НЕ y?" style="rhombus;whiteSpace=wrap;html=1;" vertex="1" parent="1">
          <mxGeometry x="230" y="1970" width="290" height="100" as="geometry" />
        </mxCell>
        <mxCell id="WZUrz4PlLw2k-hg1UFa6-75" value="" style="endArrow=classic;html=1;rounded=0;entryX=1;entryY=0.5;entryDx=0;entryDy=0;" edge="1" parent="1" target="WZUrz4PlLw2k-hg1UFa6-65">
          <mxGeometry width="50" height="50" relative="1" as="geometry">
            <mxPoint x="580" y="1840" as="sourcePoint" />
            <mxPoint x="480" y="2000" as="targetPoint" />
          </mxGeometry>
        </mxCell>
        <mxCell id="WZUrz4PlLw2k-hg1UFa6-76" style="edgeStyle=orthogonalEdgeStyle;rounded=0;orthogonalLoop=1;jettySize=auto;html=1;exitX=0.5;exitY=1;exitDx=0;exitDy=0;" edge="1" parent="1" source="WZUrz4PlLw2k-hg1UFa6-72" target="WZUrz4PlLw2k-hg1UFa6-72">
          <mxGeometry relative="1" as="geometry" />
        </mxCell>
        <mxCell id="WZUrz4PlLw2k-hg1UFa6-77" value="Да" style="text;html=1;strokeColor=none;fillColor=none;align=center;verticalAlign=middle;whiteSpace=wrap;rounded=0;" vertex="1" parent="1">
          <mxGeometry x="520" y="1990" width="60" height="30" as="geometry" />
        </mxCell>
        <mxCell id="WZUrz4PlLw2k-hg1UFa6-78" value="Нет" style="text;html=1;strokeColor=none;fillColor=none;align=center;verticalAlign=middle;whiteSpace=wrap;rounded=0;" vertex="1" parent="1">
          <mxGeometry x="400" y="2060" width="60" height="30" as="geometry" />
        </mxCell>
        <mxCell id="WZUrz4PlLw2k-hg1UFa6-79" value="Выход из метода" style="rounded=1;whiteSpace=wrap;html=1;" vertex="1" parent="1">
          <mxGeometry x="318" y="2100" width="120" height="60" as="geometry" />
        </mxCell>
        <mxCell id="WZUrz4PlLw2k-hg1UFa6-81" value="EnterNumber - вход в метод&lt;br&gt;double EnterNumber(string numberName)&lt;br&gt;Возвращает - double (число)&lt;br&gt;Принимает строку с именем числа в переменную numberName (это как a, b или c)" style="rounded=1;whiteSpace=wrap;html=1;" vertex="1" parent="1">
          <mxGeometry x="800" y="40" width="265" height="90" as="geometry" />
        </mxCell>
        <mxCell id="WZUrz4PlLw2k-hg1UFa6-82" value="Console.WriteLine($&quot;Введите число {n}&quot;);&lt;br&gt;Сообщаем имя числа, переданного методу в скобках" style="rounded=0;whiteSpace=wrap;html=1;" vertex="1" parent="1">
          <mxGeometry x="712.5" y="155" width="440" height="50" as="geometry" />
        </mxCell>
      </root>
    </mxGraphModel>
  </diagram>
</mxfile>
